<?xml version="1.0" encoding="UTF-8"?>
<svg width="85.99mm" height="74.083mm" version="1.1" viewBox="0 0 85.989586 74.083336" xmlns="http://www.w3.org/2000/svg" xmlns:xlink="http://www.w3.org/1999/xlink">
<defs>
<linearGradient id="b" x1="89.768" x2="124.68" y1="151.8" y2="114.32" gradientUnits="userSpaceOnUse">
<stop stop-color="#f60" offset="0"/>
<stop stop-color="#ffeb00" offset="1"/>
</linearGradient>
<linearGradient id="a" x1="93.059" x2="107.37" y1="126.91" y2="146.51" gradientUnits="userSpaceOnUse">
<stop stop-color="#ff4b33" offset="0"/>
<stop stop-color="#a6181c" offset="1"/>
</linearGradient>
</defs>
<g transform="translate(-64.017 -94.005)">
<g transform="translate(-2.7182 1.2876)" stroke-width=".26458">
<path d="m113.46 154.91c-1.4999-1.1454-4.1629-1.9898-6.5339-2.0719-7.0914-0.24546-9.8468-0.85377-11.984-2.6457-1.1532-0.967-2.647-2.0169-2.7055-1.9015-0.02495 0.0492-0.27698 0.54432-0.56008 1.1003-0.54093 1.0623-2.5408 2.8992-3.4724 3.1895-0.90279 0.2813-2.355-0.41355-3.9246-1.8778-1.0529-0.98223-1.481-1.5774-1.481-2.059 0-1.2351-0.67687-2.4261-1.4929-2.6268-1.4639-0.3601-3.5858-1.6041-3.9573-2.3199-0.20388-0.39296-0.37068-1.3986-0.37068-2.2347 0-1.2016 0.14248-1.7259 0.67973-2.5011 0.62712-0.90493 0.65516-1.0629 0.36218-2.0408-0.59812-1.9963 0.1285-2.8738 2.6521-3.2029 1.1788-0.15371 1.1812-0.15617 1.6716-1.7414 0.29447-0.95182 0.43863-2.0027 0.36002-2.6245-0.19234-1.5212 0.89585-5.3678 2.4756-8.7508 0.74699-1.5997 1.5176-3.0879 1.7126-3.3072 0.22072-0.24831 0.39276-1.2969 0.45611-2.7799 0.07936-1.858 0.24481-2.6692 0.75287-3.6913 0.62078-1.249 0.71905-1.3235 2.1064-1.5975 0.80036-0.15807 1.7874-0.50805 2.1933-0.77775 0.53088-0.35269 1.1933-0.48391 2.3593-0.46738 0.89164 0.0127 1.8522-0.10065 2.1346-0.25178 0.76683-0.41039 1.2152 0.14057 0.63555 0.78103-0.27582 0.30478-0.44219 0.93245-0.43996 1.6599 0.0033 1.091-0.59013 3.9155-1.4658 6.9763-0.20591 0.71974-0.32655 1.3564-0.26809 1.4149 0.32 0.32 2.0459-1.5348 2.4113-2.5912 1.0365-2.9972 2.7814-5.2447 5.4706-7.0463 0.98227-0.65805 1.7859-1.2863 1.7859-1.3962s0.62508-0.59886 1.3891-1.0867c0.76399-0.48785 2.0823-1.3316 2.9296-1.8749 0.84727-0.54333 2.7195-1.3665 4.1606-1.8292 2.3831-0.76518 2.842-0.82943 5.0741-0.71033 1.3497 0.072 3.0493 0.26885 3.777 0.43739 1.4002 0.32435 5.7546 0.36411 10.583 0.0966 6.1621-0.34133 6.8963-0.18167 9.0232 1.9623 1.7836 1.7979 1.7574 2.3478-0.0987 2.0697-0.68835-0.10314-2.3231-0.27646-3.6328-0.38517-1.3097-0.1087-2.6194-0.32557-2.9104-0.48193-0.69583-0.37384-3.8859-0.7073-4.5996-0.48079-0.38247 0.1214-0.56304 0.40249-0.57009 0.88745-8e-3 0.53273-0.31816 0.93647-1.2445 1.6186-1.0414 0.76689-1.6004 0.95924-3.5786 1.2312-3.3052 0.45445-4.108 1.2926-2.6728 2.7906 0.75869 0.79191 0.70124 1.5516-0.11735 1.5516-0.78923 0-1.3722 0.86198-1.3722 2.0289 0 0.88039-0.1148 1.1135-0.6739 1.3682-0.37065 0.16887-1.0523 0.30705-1.5147 0.30705h-0.84082l1.934 1.947c1.9262 1.9392 1.9447 1.9499 4.5853 2.658 1.4582 0.39103 3.2204 0.81889 3.916 0.95081 1.4523 0.27542 3.1042 1.3033 3.7511 2.3342 0.57187 0.91118 1.331 4.9219 1.1322 5.9817-0.084 0.44778 0.0317 1.6987 0.25714 2.7799 0.22543 1.0812 0.34249 2.0332 0.26012 2.1155-0.21095 0.21096-0.90024-0.78877-0.90024-1.3057 0-0.5369-1.0148-1.4743-2.9615-2.7355-0.82846-0.53675-1.7481-1.3155-2.0437-1.7306-0.36542-0.51318-0.8571-0.80837-1.5364-0.92242-1.3814-0.23193-3.2757-1.5832-3.9094-2.7888-0.29104-0.55365-0.88635-1.4962-1.3229-2.0945-0.43657-0.59834-1.1289-1.6248-1.5384-2.2811-0.58253-0.93335-0.97502-1.2552-1.8025-1.478-0.58179-0.15666-1.2209-0.34743-1.4202-0.42392-0.21909-0.0841-0.52695 0.17905-0.77839 0.66528-0.22877 0.44239-0.71307 1.1015-1.0762 1.4646-0.36315 0.36315-0.66027 0.78474-0.66027 0.93688s-0.18441 0.27661-0.40981 0.27661c-0.46018 0-1.4275-1.9235-1.4365-2.8563-3e-3 -0.33403-0.30946-0.91099-0.68058-1.2821-0.52858-0.52858-0.82953-0.63562-1.3891-0.49405-0.39287 0.0994-1.1814 0.22781-1.7522 0.28536-1.7137 0.17276-3.6733 1.5775-5.6102 4.0216-0.96099 1.2126-1.686 2.266-1.6112 2.3409 0.36934 0.36934 2.493-0.554 5.2166-2.2682 0.99445-0.62587 3.6941-1.6367 3.9495-1.4788 0.1561 0.0965 0.28382 0.51498 0.28382 0.93002 0 0.741 1.2446 2.1246 1.9111 2.1246 0.15568 0 0.89553 0.40654 1.6441 0.90343 1.2264 0.81402 1.5695 0.9101 3.467 0.97086 1.1582 0.0371 2.4036-0.0134 2.7674-0.11231 0.36381-0.0989 0.84006-0.0586 1.0583 0.0894 0.33729 0.22876 0.29757 0.34743-0.26459 0.7905-0.3638 0.28674-0.79183 0.52399-0.95118 0.52722-0.15934 3e-3 -0.49216 0.22958-0.73959 0.50299-0.42925 0.47431-2.6359 1.0599-4.6592 1.2365-3.6328 0.31708-4.7416 0.46771-5.5562 0.75482-0.61499 0.21674-2.1258 0.29648-4.4979 0.23741-4.3035-0.10717-5.8993-0.0898-6.055 0.066-0.0643 0.0643 0.07364 0.74237 0.30656 1.5068 0.80232 2.6333 0.87711 3.2108 0.57407 4.4326l-0.29531 1.1906 3.0498 0.30666c2.7252 0.27402 6.9614 1.1852 7.6211 1.6392 0.46935 0.32302 1.7087 2.6993 1.6452 3.1546-0.087 0.62415 0.30191 2.7289 0.6139 3.3224 0.25951 0.49369 1.725 1.2344 2.4423 1.2344 0.21706 0 0.68154-0.30939 1.0322-0.68753 0.72895-0.78614 1.6329-0.77167 1.6329 0.0261 0 0.58056-0.96724 1.1446-2.3465 1.3685-0.63294 0.10271-1.4009-0.0874-2.7561-0.68215-2.4374-1.0698-6.1933-1.5467-6.3426-0.80535-0.14391 0.71429 1.0624 2.186 1.9881 2.4256 0.57158 0.14791 1.0716 0.55429 1.4855 1.2072 0.75742 1.195 2.8526 3.1825 4.354 4.1303 0.60726 0.38335 1.1041 0.75503 1.1041 0.82597 0 0.29533-0.76613 0.0956-1.3534-0.35288z" fill="url(#b)"/>
<path d="m82.552 145.4c-0.15155-0.5457-0.27621-1.2726-0.27702-1.6154-8.2e-4 -0.3428-0.19282-1.3548-0.42669-2.249-0.28567-1.0922-0.37581-2.1679-0.27468-3.2779 0.17668-1.939 0.41757-2.4729 1.338-2.9656 0.59734-0.31969 0.79463-0.3025 1.6385 0.14277 0.52768 0.27841 1.0705 0.74433 1.2063 1.0354 0.13578 0.29105 0.66217 0.80101 1.1698 1.1332 0.50759 0.33225 1.0572 0.89897 1.2215 1.2594 0.25306 0.55541 0.21023 0.74935-0.28095 1.2722-0.36573 0.38929-0.5592 0.90078-0.52444 1.3864 0.09329 1.3033-0.03857 2.8685-0.27278 3.238-0.17374 0.27406-0.49159 0.16242-1.4391-0.50543-1.0193-0.71845-1.2823-0.80225-1.625-0.51779-0.48134 0.39948-0.53177 1.1043-0.10924 1.5268 0.42262 0.42263 0.08253 1.129-0.54356 1.129-0.38133 0-0.60045-0.27156-0.80058-0.99219zm18.375-0.0323c-1.8813-0.54234-4.8741-2.0966-5.2626-2.7331-0.45477-0.74499-0.01452-0.81163 1.2021-0.18194 0.63257 0.3274 2.3407 1.0355 3.7959 1.5736 1.6914 0.62544 2.6767 1.1332 2.7314 1.4076 0.10802 0.54191-0.40519 0.52815-2.4668-0.0661zm-17.969-12.076c-0.46317-0.35047-0.47665-0.47547-0.15609-1.4468 0.19298-0.58475 0.45512-1.0632 0.58252-1.0632 0.1274 0 0.47352-0.56429 0.76915-1.254 0.29563-0.68969 1.2737-2.0463 2.1734-3.0148s1.9072-2.1237 2.2388-2.5673c0.62646-0.8381 3.5723-3.0209 4.9534-3.6704 1.5464-0.7272 2.0975-1.1155 3.4873-2.457 0.77298-0.74613 1.5243-1.2831 1.6695-1.1934 0.14527 0.0898 1.4245 0.0338 2.8428-0.1243 2.9883-0.33322 3.2451-0.19538 3.2451 1.7419 0 0.64577 0.1397 1.1752 0.33073 1.2535 0.21677 0.0888 0.0449 0.39268-0.49873 0.88194-0.98239 0.88411-4.0653 4.774-4.0653 5.1294 0 0.78618 3.3673-0.23458 5.2899-1.6036 1.0317-0.73463 1.239-0.67321 1.4457 0.42817 0.15464 0.82426 0.0624 1.1047-0.6579 2.0011-0.78828 0.98091-0.81176 1.0712-0.39774 1.5286 0.59958 0.66253 0.16121 0.87845-1.3296 0.6549-1.0243-0.15361-1.4494-0.06-2.8435 0.62602-0.90152 0.44364-2.1749 0.87618-2.8298 0.9612-1.1674 0.15157-1.2022 0.13416-1.7859-0.89297-0.32742-0.57615-0.59531-1.3514-0.59531-1.7227 0-0.44145-0.14599-0.67519-0.4217-0.67519-0.35069 0-0.39291 0.21163-0.25074 1.2568 0.16854 1.2389 0.15228 1.2751-1.1454 2.5497-1.5085 1.4816-2.3228 1.5471-2.0186 0.16253 0.22526-1.0256-0.19442-1.0276-0.923-4e-3 -0.36107 0.50709-0.7698 0.77425-1.1425 0.74678-0.97251-0.0717-3.3986 0.58746-5.1494 1.399-1.8811 0.87196-2.1117 0.90212-2.8171 0.3684zm24.584-5.1558c0.0899-0.14552 0.34212-0.26458 0.5604-0.26458s0.32329 0.11906 0.23335 0.26458c-0.0899 0.14552-0.34211 0.26458-0.56039 0.26458-0.21829 0-0.3233-0.11906-0.23336-0.26458z" fill="url(#a)"/>
</g>
</g>
</svg>
